<?xml version="1.0" encoding="UTF-8"?><svg id="Layer_2" xmlns="http://www.w3.org/2000/svg" viewBox="0 0 716.1 179.8"><defs><style>.cls-1{fill:#ea2c00;}</style></defs><g id="Artwork"><g><g><polygon points="245.8 78.8 245.8 92.8 194.6 92.8 194.6 78.8 211.7 78.8 211.7 14 194.6 14 194.6 0 228.9 0 228.9 78.8 245.8 78.8"/><polygon points="307.1 78.8 307.1 92.8 255.9 92.8 255.9 78.8 272.9 78.8 272.9 14 255.9 14 255.9 0 290.2 0 290.2 78.8 307.1 78.8"/><path d="M327.6,92.8V38.8h-16.3v-14h16.3v-5.5c0-12.5,6.5-19.2,19.9-19.2h19.3V13.8h-16.5c-4.2,0-5.9,1.8-5.9,5.9v5h22.4v14h-22.2v54h-17v.1Z"/><path d="M406.9,24c-20.7,0-34.7,14-34.7,34.8s14,34.8,34.7,34.8,34.8-13.9,34.8-34.8c0-20.9-14-34.8-34.8-34.8Zm0,55.4c-10.4,0-17.2-8.6-17.2-20.7s6.8-20.7,17.2-20.7,17.3,8.6,17.3,20.7c0,12.2-6.8,20.7-17.3,20.7Z"/><path d="M499.2,24.8h17.1V92.8h-16.7v-8.3c-4.3,5.1-10.3,9.1-19.8,9.1-13.8,0-26.3-7.1-26.3-30.4V24.8h17.1V61.8c0,11.3,4.1,17.6,13.5,17.6s15.1-6.9,15.1-19.2V24.8h0Z"/><path d="M659.5,0V32.9c-4.3-5.3-11-9-20.2-9-17.9,0-31.7,13.7-31.7,34.7s13.3,34.9,31.4,34.9c9.9,0,16.6-4.7,21-10.6v9.8h16.7V0h-17.2Zm-17.1,79.4c-10.6,0-17.4-8.5-17.4-20.7s6.8-20.7,17.4-20.7,17.3,8.5,17.3,20.8c0,12.2-6.8,20.6-17.3,20.6Z"/></g><path d="M21.1,92.8L0,24.8H19.6l12.5,48.9,13.5-48.9h19.7l13.5,48.9,12.5-48.9h19.6l-21.4,68h-20.9l-13.2-49.1-13.3,49.1H21.1Z"/><circle class="cls-1" cx="704.7" cy="82.1" r="11.4"/><circle class="cls-1" cx="704.7" cy="35.4" r="11.4"/><path d="M184.5,62.7c.3-2.1,.5-4.6,.5-6.2-.2-20-13.6-32.6-33.4-32.6s-34,13.8-34,34.9,13.4,34.7,35.2,34.7c17.6,0,29.1-10.5,31.2-23.8h-16.9c-1.7,6.8-7.2,10.5-15,10.5-9.8,0-16.3-6.5-16.7-16.8v-.8h49.1v.1Zm-32.9-25.7c8.6,0,14.5,4.8,16,13.6h-31.7c1.2-8.4,7.6-13.6,15.7-13.6Z"/><path d="M550.1,92.8h-17.1V24.8h16.7v8.3c4.3-5.1,10.3-9.1,19.8-9.1,13.8,0,26.3,7.1,26.3,30.4v38.4h-17.1V55.7c0-11.3-4.1-17.6-13.5-17.6s-15.1,6.9-15.1,19.2v35.5h0Z"/><g><path d="M20,143.4h-4.2v-3.9h4.2v-4.8c0-6,2.9-9.5,8.8-9.5,1.5,0,2.3,.2,3.5,.6v3.9c-.8-.3-2-.6-3.3-.6-3,0-4.3,2.1-4.3,5.1v5.3h7.2v3.9h-7.2v25.5h-4.7v-25.5Z"/><path d="M34.8,154.4v-.5c0-8.8,6.1-15,14.5-15s14.5,6.1,14.5,15v.5c0,8.9-6.1,15-14.5,15s-14.5-6.4-14.5-15Zm24.1,0v-.4c0-6.8-3.8-11.2-9.6-11.2s-9.6,4.4-9.6,11.2v.5c0,6.7,3.7,11.1,9.6,11.1,5.9-.1,9.6-4.5,9.6-11.2Z"/><path d="M71,139.4h4.7v5.3c1.9-3.3,4.4-5.6,9.7-5.8v4.4c-5.9,.3-9.7,2.1-9.7,9.4v16.2h-4.7v-29.5Z"/><path d="M92.2,139.4h4.7v4.5c1.4-2.8,4.6-5,8.8-5,3.8,0,7.1,1.6,8.6,5.5,2-3.8,6.4-5.5,10.1-5.5,5.3,0,9.9,3.2,9.9,11.7v18.2h-4.7v-18.6c0-5.2-2.2-7.3-6.3-7.3-3.8,0-7.8,2.6-7.8,7.9v18h-4.7v-18.6c0-5.2-2.2-7.3-6.3-7.3-3.8,0-7.8,2.6-7.8,7.9v18h-4.7v-29.4h.2Z"/><path d="M141.3,154.5v-.5c0-8.9,5.7-15.1,13.8-15.1,6.8,0,13.2,4.1,13.2,14.6v1.5h-22.2c.2,6.7,3.4,10.4,9.5,10.4,4.6,0,7.2-1.7,7.8-5.1h4.7c-1,5.9-5.9,9-12.6,9-8.3,.1-14.2-5.7-14.2-14.8Zm22.2-3.2c-.4-6.1-3.6-8.5-8.4-8.5s-8,3.3-8.8,8.5h17.2Z"/><path d="M175.5,139.4h4.7v5.3c1.9-3.3,4.4-5.6,9.7-5.8v4.4c-5.9,.3-9.7,2.1-9.7,9.4v16.2h-4.7v-29.5Z"/><path d="M196.8,128.6h4.7v40.3h-4.7v-40.3Z"/><path d="M219.3,165.9l-11.5-26.4h5l9,21.1,8.2-21.1h4.8l-16.3,39.7h-4.7l5.5-13.3Z"/><path d="M264.5,128.6h9.8l13.3,40.3h-7.8l-3.2-10h-15.3l-3.2,10h-7l13.4-40.3Zm-1.5,24.9h11.9l-5.9-18.7-6,18.7Z"/><path d="M293.2,139.4h6.8v4.7c1.4-2.9,4.7-5.3,9.5-5.3,5.9,0,10.1,3.4,10.1,11.5v18.5h-6.8v-17.9c0-4.4-1.8-6.5-5.9-6.5-3.8,0-6.9,2.4-6.9,7v17.3h-6.8v-29.3h0Z"/><path d="M325.8,169.9h6.9c.6,2.9,2.8,4.6,7.3,4.6,5.3,0,8.2-2.6,8.2-7.9v-4.3c-1.6,2.8-5.3,5.5-9.6,5.5-7.4,0-13.1-5.5-13.1-14v-.4c0-8.3,5.6-14.5,13.2-14.5,4.8,0,7.8,2.2,9.5,5.1v-4.5h6.8v27.3c-.1,8.7-5.9,13-15,13-9.2-.1-13.4-4.2-14.2-9.9Zm22.6-16.4v-.4c0-5.6-3-8.9-7.9-8.9s-8,3.7-8,9v.5c0,5.5,3.4,8.8,7.8,8.8s8.1-3.4,8.1-9Z"/><path d="M361.1,154.5v-.5c0-9.1,6.3-15.2,14.6-15.2,7.3,0,13.9,4.3,13.9,14.9v2h-21.6c.2,5.6,3,8.7,8.1,8.7,4.1,0,6.3-1.6,6.8-4.5h6.6c-1,6.2-6,9.6-13.5,9.6-8.6,0-14.9-5.7-14.9-15Zm21.8-3.4c-.3-5.1-2.9-7.3-7.2-7.3s-6.9,2.8-7.5,7.3h14.7Z"/><path d="M395.9,128.6h6.8v40.3h-6.8v-40.3Z"/><path d="M411.6,128.6h7.5v34.3h17.2v6h-24.7v-40.3Z"/><path d="M441.5,130.7c0-2.3,1.8-3.9,4.1-3.9s4.1,1.7,4.1,3.9-1.8,3.9-4.1,3.9-4.1-1.7-4.1-3.9Zm.7,8.7h6.8v29.5h-6.8v-29.5Z"/><path d="M455.1,159.7h6.4c.3,3,1.9,4.7,5.9,4.7,3.7,0,5.3-1.3,5.3-3.8s-2-3.3-6.3-4.1c-7.8-1.2-10.6-3.4-10.6-9,0-5.9,5.5-8.8,11-8.8,6,0,10.8,2.3,11.5,8.9h-6.3c-.6-2.7-2.1-3.9-5.2-3.9-2.9,0-4.7,1.4-4.7,3.5s1.4,3,6.1,3.8c6.9,1.1,11,2.8,11,9s-4.2,9.4-11.8,9.4c-7.6,.1-12.1-3.4-12.3-9.7Z"/><path d="M486.3,160.7v-16.1h-4v-5.1h3.9v-6.5h6.8v6.5h6.5v5.1h-6.5v15.5c0,2.6,1.2,3.8,3.4,3.8,1.4,0,2.4-.2,3.3-.6v5.4c-1.1,.4-2.5,.7-4.6,.7-5.8,0-8.8-3.1-8.8-8.7Z"/><path d="M527.9,134.5h-11.2v-5.9h30v5.9h-11.2v34.4h-7.5v-34.4h-.1Z"/><path d="M546.4,160.7c0-6.9,6.6-9.3,15.1-9.3h3.7v-1.5c0-3.9-1.4-5.9-5.4-5.9-3.5,0-5.3,1.7-5.6,4.6h-6.6c.6-6.9,6-9.7,12.6-9.7s11.8,2.7,11.8,10.8v19.3h-6.7v-3.6c-1.9,2.5-4.5,4.2-9,4.2-5.5-.1-9.9-2.7-9.9-8.9Zm18.7-2.1v-2.9h-3.5c-5.2,0-8.5,1.2-8.5,4.8,0,2.5,1.4,4.1,4.7,4.1,4.2,0,7.3-2.2,7.3-6Z"/><path d="M579.9,128.6h6.8v40.3h-6.8v-40.3Z"/><path d="M593.1,154.5v-.5c0-9.1,6.3-15.2,14.6-15.2,7.3,0,13.9,4.3,13.9,14.9v2h-21.6c.2,5.6,3,8.7,8.1,8.7,4.1,0,6.3-1.6,6.8-4.5h6.6c-1,6.2-6,9.6-13.5,9.6-8.7,0-14.9-5.7-14.9-15Zm21.8-3.4c-.3-5.1-2.9-7.3-7.2-7.3s-6.9,2.8-7.5,7.3h14.7Z"/><path d="M627.7,139.4h6.8v4.7c1.4-2.9,4.7-5.3,9.5-5.3,5.9,0,10.1,3.4,10.1,11.5v18.5h-6.8v-17.9c0-4.4-1.8-6.5-5.9-6.5-3.8,0-6.9,2.4-6.9,7v17.3h-6.8v-29.3h0Z"/><path d="M663.1,160.7v-16.1h-3.9v-5.1h3.9v-6.5h6.8v6.5h6.5v5.1h-6.5v15.5c0,2.6,1.2,3.8,3.4,3.8,1.4,0,2.4-.2,3.3-.6v5.4c-1.1,.4-2.5,.7-4.6,.7-5.9,0-8.9-3.1-8.9-8.7Z"/></g></g></g></svg>